<?xml version="1.0" encoding="UTF-8"?>
<svg width="20px" height="20px" viewBox="0 0 20 20" version="1.1" xmlns="http://www.w3.org/2000/svg" xmlns:xlink="http://www.w3.org/1999/xlink">
    <title>仪表盘</title>
    <g id="Nuroum设备统一管理平台/DFU软件" stroke="none" stroke-width="1" fill="currentColor" fill-rule="evenodd">
        <g id="icon" transform="translate(-161.000000, -47.000000)" fill-rule="nonzero">
            <g id="仪表盘" transform="translate(161.000000, 47.000000)">
                <path d="M19.2142857,6.84 C18.7098214,5.505 17.9888393,4.3075 17.0714286,3.28 C16.1540179,2.2525 15.0848214,1.445 13.8928571,0.88 C12.6584821,0.295 11.3504464,0 10,0 C8.64955357,0 7.34151786,0.295 6.10714286,0.88 C4.91517857,1.445 3.84598214,2.2525 2.92857143,3.28 C2.01116071,4.3075 1.29017857,5.505 0.785714286,6.84 C0.263392857,8.2225 0,9.6875 0,11.2 C0,14.5175 1.30133929,17.6425 3.56919643,19.7775 L3.60714286,19.8125 C3.73660714,19.9325 3.89955357,20 4.06696429,20 L15.9352679,20 C16.1026786,20 16.265625,19.9325 16.3950893,19.8125 L16.4330357,19.7775 C18.6986607,17.6425 20,14.5175 20,11.2 C20,9.6875 19.734375,8.2225 19.2142857,6.84 Z M15.5669643,18.1 L4.43303571,18.1 C2.68973214,16.3375 1.69642857,13.84 1.69642857,11.2 C1.69642857,8.715 2.56026786,6.38 4.12946429,4.625 C5.69866071,2.8675 7.78348214,1.9 10,1.9 C12.21875,1.9 14.3035714,2.8675 15.8705357,4.625 C17.4397321,6.3825 18.3035714,8.7175 18.3035714,11.2 C18.3035714,13.84 17.3102679,16.3375 15.5669643,18.1 Z" id="形状"></path>
                <path d="M12.4888393,7.7375 C12.4196429,7.66 12.3058036,7.66 12.2366071,7.7375 L10.3504464,9.85 C9.93303571,9.725 9.47098214,9.845 9.14285714,10.2125 C8.65401786,10.76 8.65401786,11.645 9.14285714,12.1925 C9.63169643,12.74 10.421875,12.74 10.9107143,12.1925 C11.2388393,11.825 11.3459821,11.3075 11.234375,10.84 L13.1205357,8.7275 C13.1897321,8.65 13.1897321,8.5225 13.1205357,8.445 L12.4888393,7.7375 L12.4888393,7.7375 Z M9.50892857,5.2 L10.4910714,5.2 C10.5892857,5.2 10.6696429,5.11 10.6696429,5 L10.6696429,3 C10.6696429,2.89 10.5892857,2.8 10.4910714,2.8 L9.50892857,2.8 C9.41071429,2.8 9.33035714,2.89 9.33035714,3 L9.33035714,5 C9.33035714,5.11 9.41071429,5.2 9.50892857,5.2 Z M15.3125,10.65 L15.3125,11.75 C15.3125,11.86 15.3928571,11.95 15.4910714,11.95 L17.2767857,11.95 C17.375,11.95 17.4553571,11.86 17.4553571,11.75 L17.4553571,10.65 C17.4553571,10.54 17.375,10.45 17.2767857,10.45 L15.4910714,10.45 C15.3928571,10.45 15.3125,10.54 15.3125,10.65 Z M15.5959821,5.72 L14.9017857,4.9425 C14.8325893,4.865 14.71875,4.865 14.6495536,4.9425 L13.3861607,6.3575 C13.3169643,6.435 13.3169643,6.5625 13.3861607,6.64 L14.0803571,7.4175 C14.1495536,7.495 14.2633929,7.495 14.3325893,7.4175 L15.5959821,6.0025 C15.6651786,5.925 15.6651786,5.7975 15.5959821,5.72 Z M5.359375,4.9425 C5.29017857,4.865 5.17633929,4.865 5.10714286,4.9425 L4.41294643,5.72 C4.34375,5.7975 4.34375,5.925 4.41294643,6.0025 L5.67633929,7.4175 C5.74553571,7.495 5.859375,7.495 5.92857143,7.4175 L6.62276786,6.64 C6.69196429,6.5625 6.69196429,6.435 6.62276786,6.3575 L5.359375,4.9425 Z M4.41964286,10.45 L2.63392857,10.45 C2.53571429,10.45 2.45535714,10.54 2.45535714,10.65 L2.45535714,11.75 C2.45535714,11.86 2.53571429,11.95 2.63392857,11.95 L4.41964286,11.95 C4.51785714,11.95 4.59821429,11.86 4.59821429,11.75 L4.59821429,10.65 C4.59821429,10.54 4.51785714,10.45 4.41964286,10.45 Z" id="形状"></path>
            </g>
        </g>
    </g>
</svg>