<?xml version="1.0" encoding="UTF-8"?>
<svg width="64px" height="64px" viewBox="0 0 64 64" version="1.1" xmlns="http://www.w3.org/2000/svg" xmlns:xlink="http://www.w3.org/1999/xlink">
    <title>男头像备份</title>
    <g id="Nearhub-白板模块" stroke="none" stroke-width="1" fill="none" fill-rule="evenodd">
        <g id="白板-用户管理界面-游客模式" transform="translate(-3716.000000, -32.000000)" fill-rule="nonzero">
            <g id="男头像备份" transform="translate(3716.000000, 32.000000)">
                <path d="M0,32 C0,49.673112 14.326888,64 32,64 C49.673112,64 64,49.673112 64,32 C64,14.326888 49.673112,0 32,0 C14.326888,0 0,14.326888 0,32 Z" id="路径" fill="#424A60"></path>
                <path d="M58.4077241,50.0700689 C57.6827586,43.0179311 51.7252414,37.5172414 44.4811034,37.5172414 L37.92,37.5172414 C37.5205291,37.5172414 37.1374195,37.3585522 36.8549509,37.0760836 C36.5724823,36.793615 36.4137931,36.4105054 36.4137931,36.0110345 L36.4137931,35.2993104 C36.4137931,34.656 36.832,34.1053793 37.4344828,33.8791724 C43.8388966,31.4714483 48.224,20.9644138 47.3335172,13.5393104 C46.4926896,6.53131037 40.7944828,0.883862062 33.7809655,0.099310375 C33.218524,0.0365170182 32.6531052,0.00410211389 32.0871724,0.002206875 L32.0342069,0.00106540616 C23.4868966,-0.0176551875 16.5517241,6.90537931 16.5517241,15.4482759 C16.5517241,22.0954483 20.7525517,31.7296552 26.6427586,33.9078621 C27.2198621,34.1208276 27.5862069,34.6946207 27.5862069,35.3103448 L27.5862069,36.0110345 C27.5862069,36.8430345 26.912,37.5172414 26.08,37.5172414 L19.5188966,37.5172414 C12.2747586,37.5172414 6.31724137,43.017931 5.59227587,50.0700689 C11.3577931,58.4805517 21.0328276,64 32,64 C42.9671724,64 52.6422069,58.4805518 58.4077241,50.0700689 Z" id="路径" fill="#FBCE9D"></path>
                <path d="M36.9566896,7.29379312 C41.056,8.42041381 44.9158621,10.9417931 47.3875862,14.2697931 C47.369931,14.0259311 47.3622069,13.7765517 47.3335172,13.5382069 C46.4926896,6.53131037 40.7944827,0.883862062 33.7809655,0.099310375 C33.218524,0.0365170182 32.6531052,0.00410211389 32.0871724,0.002206875 L32.0342069,0.00106636863 C24.3983448,-0.0154483125 18.0645517,5.51282756 16.7977931,12.7823448 L16.8033104,12.7823448 C17.0008276,13.0604137 17.1939311,13.3417931 17.4046896,13.6099311 C17.481931,13.5139311 17.5602758,13.4190345 17.6397241,13.3252414 C19.8466207,10.6990345 23.5332414,10.0910345 26.6692414,11.4813793 C28.5848099,12.3271103 30.7616625,12.358884 32.7010985,11.5694214 C34.6405346,10.7799587 36.1763459,9.2369162 36.9566896,7.29379312 L36.9566896,7.29379312 Z" id="路径" fill="#6C797A"></path>
                <path d="M58.4077241,50.0700689 C57.6827586,43.0179311 51.7241379,37.5172414 44.4811034,37.5172414 L43.0344828,37.5172414 L36.4137931,44.1379311 L27.5862069,44.1379311 L24.2758621,41.9310345 L20.4921379,37.5172414 L19.5188966,37.5172414 C12.2758621,37.5172414 6.31724138,43.017931 5.59227588,50.0700689 C11.3577931,58.4805517 21.0328276,64 32,64 C42.9671724,64 52.6422069,58.4805518 58.4077241,50.0700689 Z" id="路径" fill="#E7ECED"></path>
                <path d="M47.4482759,60.0187586 C48.2041379,59.6005518 48.9379311,59.1481379 49.6551724,58.6725518 L49.6551724,51.8620689 L47.4482759,51.8620689 L47.4482759,60.0187586 Z M16.5517241,60.0187586 L16.5517241,51.8620689 L14.3448276,51.8620689 L14.3448276,58.6725518 C15.0620689,59.1481379 15.7958621,59.6005518 16.5517241,60.0187586 Z" id="形状" fill="#CCD5D6"></path>
                <polygon id="路径" fill="#38454F" points="28.6896552 41.9310345 35.3103448 41.9310345 35.3103448 48.5517241 28.6896552 48.5517241"></polygon>
                <path d="M27.5431724,63.6844138 C28.9997242,63.8874483 30.4871724,64 32,64 C33.5249655,64 35.0223448,63.8863448 36.4899311,63.68 L34.2068966,48.5517241 L29.7931034,48.5517241 L27.5431724,63.6844138 Z" id="路径" fill="#546A79"></path>
                <path d="M28.6896552,42.8137931 L24.2758621,37.5172414 L18.9175172,37.5172414 C18.8817467,37.5172414 18.8483174,37.535035 18.8282214,37.5646269 C18.8081254,37.5942189 18.8039632,37.6318338 18.8171034,37.6651034 L23.1724138,48.5517241 L28.6896552,44.8739311 L28.6896552,42.8137931 Z M45.0824828,37.5172407 L39.7241379,37.5172407 L35.3103448,42.8137931 L35.3103448,44.8739311 L40.8275862,48.5517241 L45.1817931,37.6651034 C45.1954443,37.6320217 45.1916587,37.5943062 45.171705,37.5645975 C45.1517514,37.5348887 45.1182702,37.5171181 45.0824828,37.5172407 L45.0824828,37.5172407 Z" id="形状" fill="#FFFFFF"></path>
            </g>
        </g>
    </g>
</svg>