<?xml version="1.0" encoding="UTF-8"?>
<svg width="30px" height="30px" viewBox="0 0 30 30" version="1.1" xmlns="http://www.w3.org/2000/svg" xmlns:xlink="http://www.w3.org/1999/xlink">
    <title>编组 8</title>
    <g id="Nearhub白板" stroke="none" stroke-width="1" fill="none" fill-rule="evenodd">
        <g id="白板-已登录-邀请备份" transform="translate(-1512.000000, -699.000000)">
            <g id="编组-8" transform="translate(1512.000000, 699.000000)">
                <circle id="椭圆形" fill="#D8D8D8" cx="15" cy="15" r="15"></circle>
                <g id="关闭-(2)备份-3" opacity="0.495356242" transform="translate(5.000000, 5.000000)" fill="#000000" fill-opacity="0.9" fill-rule="nonzero">
                    <path d="M12.1227637,10 L19.5584603,2.56430336 C20.1439672,1.97879646 20.1439672,1.02704656 19.5584603,0.439130173 C18.9729534,-0.146376724 18.0212035,-0.146376724 17.4332872,0.439130173 L10,7.87723631 L2.56430336,0.44394916 C1.97879646,-0.141557737 1.02704656,-0.141557737 0.439130173,0.44394916 C-0.146376724,1.02945606 -0.146376724,1.98120595 0.439130173,2.56912234 L7.87482682,10.0024095 L0.439130173,17.4356966 C-0.146376724,18.0212035 -0.146376724,18.9729534 0.439130173,19.5608698 C1.02463707,20.1463767 1.97638696,20.1463767 2.56430336,19.5608698 L10,12.1251732 L17.4356966,19.5608698 C18.0212035,20.1463767 18.9729534,20.1463767 19.5608698,19.5608698 C20.1463767,18.9753629 20.1463767,18.023613 19.5608698,17.4356966 L12.1227637,10 Z" id="路径"></path>
                </g>
            </g>
        </g>
    </g>
</svg>