<?xml version="1.0" encoding="UTF-8"?>
<svg width="20px" height="23px" viewBox="0 0 20 23" version="1.1" xmlns="http://www.w3.org/2000/svg" xmlns:xlink="http://www.w3.org/1999/xlink">
    <title>iphone</title>
    <g id="Nuroum设备统一管理平台/DFU软件" stroke="none" stroke-width="1" fill="none" fill-rule="evenodd">
        <g id="创建房间-pc托管" transform="translate(-689.000000, -585.000000)" fill="#FFFFFF" fill-rule="nonzero">
            <g id="iphone" transform="translate(689.000000, 585.000000)">
                <path d="M13.1515163,3.62756939 C14.4704835,1.98034117 14.1661064,0.183364925 14.0646474,0.033616903 C13.9124589,-0.116131119 11.934008,0.183364925 10.5643113,1.98034117 C9.3468031,3.62756939 9.3468031,5.42454563 9.49899161,5.57429365 C9.65118012,5.72404167 11.629631,5.57429367 13.1515163,3.62756939 L13.1515163,3.62756939 Z M16.4489343,12.0134585 C16.2967458,9.6174902 18.5795737,8.12001 19.0361393,7.82051396 L19.0361393,7.67076594 C19.0361393,7.67076594 17.0576885,5.27479761 14.1661064,5.42454563 C12.3398441,5.57429365 11.4267129,6.47278178 10.2092047,6.47278178 C8.68731945,6.47278178 7.31762271,5.42454563 5.64354892,5.42454563 C4.27385219,5.42454563 0.316950485,6.62252978 0.0125734049,11.7139625 C-0.241074135,16.8053952 3.41145051,21.5474159 4.78114727,22.445904 C6.150844,23.3443921 7.06397517,23.0448961 8.58586046,22.296156 C9.34680308,21.8469119 11.7818195,21.6971639 13.1515163,22.595652 C14.8255901,23.1946441 17.2606065,22.7454 20,16.7554792 C19.6448934,16.8053952 16.6011229,16.0566551 16.4489343,12.0134585 L16.4489343,12.0134585 Z" id="形状"></path>
            </g>
        </g>
    </g>
</svg>