<?xml version="1.0" encoding="UTF-8"?>
<svg width="20px" height="14px" viewBox="0 0 20 14" version="1.1" xmlns="http://www.w3.org/2000/svg" xmlns:xlink="http://www.w3.org/1999/xlink">
    <title>笔记本</title>
    <g id="Nuroum设备统一管理平台/DFU软件" stroke="none" stroke-width="1" fill="none" fill-rule="evenodd">
        <g id="icon" transform="translate(-637.000000, -50.000000)" fill="currentColor" fill-rule="nonzero">
            <g id="笔记本" transform="translate(637.000000, 50.000000)">
                <path d="M17.3394495,10.8152239 L17.3394495,1.11775962 C17.3394495,-0.170464432 16.6360856,0.00845557712 16.6360856,0.00845557712 L4.06727828,0.00845557712 C2.90519877,0.00845557712 3.05810397,0.831487598 3.05810397,0.831487598 L3.05810397,10.8867919 L0,12.890696 L0,14 L20,14 L20,12.819128 L17.3394495,10.8152239 L17.3394495,10.8152239 Z M16.6360856,11.6740399 L17.706422,11.6740399 L17.706422,11.9245279 L16.6360856,11.9245279 L16.6360856,11.6740399 L16.6360856,11.6740399 Z M17.9816514,12.0676639 L17.9816514,12.3181519 L16.911315,12.3181519 L16.911315,12.0676639 L17.9816514,12.0676639 Z M15.5045872,11.2804159 L16.5749236,11.2804159 L16.5749236,11.5309039 L15.5045872,11.5309039 L15.5045872,11.2804159 Z M15.4434251,12.0676639 L16.5137615,12.0676639 L16.5137615,12.3181519 L15.4434251,12.3181519 L15.4434251,12.0676639 Z M15.2293578,11.9245279 L15.2293578,11.6740399 L16.2996942,11.6740399 L16.2996942,11.9245279 L15.2293578,11.9245279 Z M14.1896024,11.2804159 L15.2599388,11.2804159 L15.2599388,11.5309039 L14.1896024,11.5309039 L14.1896024,11.2804159 L14.1896024,11.2804159 Z M13.9755352,12.0676639 L15.0458716,12.0676639 L15.0458716,12.3181519 L13.9755352,12.3181519 L13.9755352,12.0676639 Z M13.853211,11.9245279 L13.853211,11.6740399 L14.9541284,11.6740399 L14.9541284,11.9245279 L13.853211,11.9245279 Z M12.8134557,11.2804159 L13.883792,11.2804159 L13.883792,11.5309039 L12.8134557,11.5309039 L12.8134557,11.2804159 Z M12.4770642,11.6740399 L13.5474006,11.6740399 L13.5474006,11.9245279 L12.4770642,11.9245279 L12.4770642,11.6740399 Z M13.6085627,12.0676639 L13.6085627,12.3181519 L12.5382263,12.3181519 L12.5382263,12.0676639 L13.6085627,12.0676639 Z M11.3455658,11.2804159 L12.4159021,11.2804159 L12.4159021,11.5309039 L11.3455658,11.5309039 L11.3455658,11.2804159 Z M11.1009174,11.6740399 L12.1712538,11.6740399 L12.1712538,11.9245279 L11.1009174,11.9245279 L11.1009174,11.6740399 Z M12.1712538,12.0676639 L12.1712538,12.3181519 L11.1009174,12.3181519 L11.1009174,12.0676639 L12.1712538,12.0676639 Z M10.030581,11.2804159 L11.1009174,11.2804159 L11.1009174,11.5309039 L10.030581,11.5309039 L10.030581,11.2804159 Z M9.72477064,11.9245279 L9.72477064,11.6740399 L10.795107,11.6740399 L10.795107,11.9245279 L9.72477064,11.9245279 Z M10.7033639,12.0676639 L10.7033639,12.3181519 L9.63302753,12.3181519 L9.63302753,12.0676639 L10.7033639,12.0676639 Z M8.68501529,11.2804159 L9.75535168,11.2804159 L9.75535168,11.5309039 L8.68501529,11.5309039 L8.68501529,11.2804159 L8.68501529,11.2804159 Z M8.34862386,11.9245279 L8.34862386,11.6740399 L9.41896025,11.6740399 L9.41896025,11.9245279 L8.34862386,11.9245279 Z M9.235474,12.0676639 L9.235474,12.3181519 L8.16513761,12.3181519 L8.16513761,12.0676639 L9.235474,12.0676639 Z M7.37003058,11.2804159 L8.44036697,11.2804159 L8.44036697,11.5309039 L7.37003058,11.5309039 L7.37003058,11.2804159 Z M6.97247707,11.9245279 L6.97247707,11.6740399 L8.04281346,11.6740399 L8.04281346,11.9245279 L6.97247707,11.9245279 Z M7.79816513,12.0676639 L7.79816513,12.3181519 L6.72782874,12.3181519 L6.72782874,12.0676639 L7.79816513,12.0676639 Z M6.02446483,11.2804159 L7.09480122,11.2804159 L7.09480122,11.5309039 L6.02446483,11.5309039 L6.02446483,11.2804159 Z M4.22018348,11.9245279 L4.22018348,11.6740399 L5.29051987,11.6740399 L5.29051987,11.9245279 L4.22018348,11.9245279 L4.22018348,11.9245279 Z M4.89296637,12.0676639 L4.89296637,12.3181519 L3.82262998,12.3181519 L3.82262998,12.0676639 L4.89296637,12.0676639 Z M5.25993885,12.0676639 L6.33027524,12.0676639 L6.33027524,12.3181519 L5.25993885,12.3181519 L5.25993885,12.0676639 Z M5.59633028,11.9245279 L5.59633028,11.6740399 L6.66666667,11.6740399 L6.66666667,11.9245279 L5.59633028,11.9245279 Z M4.70948012,11.2804159 L5.77981651,11.2804159 L5.77981651,11.5309039 L4.70948012,11.5309039 L4.70948012,11.2804159 L4.70948012,11.2804159 Z M3.39449542,11.2804159 L4.46483181,11.2804159 L4.46483181,11.5309039 L3.39449542,11.5309039 L3.39449542,11.2804159 Z M2.81345566,11.6740399 L3.88379205,11.6740399 L3.88379205,11.9245279 L2.81345566,11.9245279 L2.81345566,11.6740399 Z M2.35474006,12.0676639 L3.42507645,12.0676639 L3.42507645,12.3181519 L2.35474006,12.3181519 L2.35474006,12.0676639 L2.35474006,12.0676639 Z M11.498471,13.713728 L8.86850152,13.713728 L8.86850152,13.248536 L11.498471,13.28432 L11.498471,13.713728 L11.498471,13.713728 Z M0.152905202,12.92648 L0.550458709,12.640208 L19.6636086,12.640208 L19.969419,12.92648 L0.152905202,12.92648 Z" id="形状"></path>
            </g>
        </g>
    </g>
</svg>