<?xml version="1.0" encoding="UTF-8"?>
<svg width="28px" height="28px" viewBox="0 0 28 28" version="1.1" xmlns="http://www.w3.org/2000/svg" xmlns:xlink="http://www.w3.org/1999/xlink">
    <title>待审核</title>
    <g id="Nearhub白板" stroke="none" stroke-width="1" fill="none" fill-rule="evenodd">
        <g id="待审核" fill="#F4EA2A" fill-rule="nonzero">
            <path d="M13.8625,27.725 C10.1625,27.725 6.68125,26.28125 4.0625,23.6625 C1.44375,21.04375 0,17.5625 0,13.8625 C0,10.1625 1.44375,6.68125 4.0625,4.0625 C6.68125,1.44375 10.1625,0 13.8625,0 C17.5625,0 21.04375,1.44375 23.6625,4.0625 C26.28125,6.68125 27.725,10.1625 27.725,13.8625 C27.725,17.5625 26.28125,21.04375 23.6625,23.6625 C21.04375,26.28125 17.5625,27.725 13.8625,27.725 Z M13.8625,1.875 C7.25,1.875 1.875,7.25 1.875,13.8625 C1.875,20.475 7.25,25.85 13.8625,25.85 C20.475,25.85 25.85,20.475 25.85,13.8625 C25.85,7.25 20.475,1.875 13.8625,1.875 Z M21.08125,14.9875 C21.08125,14.46875 20.6625,14.05 20.14375,14.05 L14.04375,14.05 L14.04375,6.8625 C14.04375,6.34375 13.625,5.925 13.10625,5.925 C12.5875,5.925 12.16875,6.34375 12.16875,6.8625 L12.16875,14.9875 C12.16875,15.50625 12.5875,15.925 13.10625,15.925 L20.14375,15.925 C20.6625,15.925 21.08125,15.50625 21.08125,14.9875 Z" id="形状"></path>
        </g>
    </g>
</svg>