<?xml version="1.0" encoding="UTF-8"?>
<svg width="28px" height="28px" viewBox="0 0 28 28" version="1.1" xmlns="http://www.w3.org/2000/svg" xmlns:xlink="http://www.w3.org/1999/xlink">
    <title>进行中</title>
    <g id="Nearhub白板" stroke="none" stroke-width="1" fill="none" fill-rule="evenodd">
        <g id="进行中" fill="#1296DB" fill-rule="nonzero">
            <path d="M13.9977876,0.002 C20.2001632,0.00160992986 25.6639303,4.08112499 27.4257876,10.028 C27.5343779,10.3519033 27.457468,10.7092505 27.225241,10.9598015 C26.9930141,11.2103525 26.6425249,11.3141287 26.3113222,11.2304032 C25.9801195,11.1466777 25.721051,10.8888101 25.6357876,10.558 C23.9261287,4.78010471 18.2355251,1.13208147 12.2714793,1.99066514 C6.3074336,2.84924881 1.87692302,7.95430706 1.86648319,13.9798277 C1.85604336,20.0053482 6.26883733,25.1257284 12.2298721,26.0049735 C18.1909069,26.8842186 23.8941175,23.2559363 25.6237876,17.484 C25.7070014,17.1503171 25.9668531,16.8893572 26.3001789,16.8047241 C26.6335047,16.720091 26.9863737,16.8254781 27.2186933,17.0790455 C27.4510129,17.332613 27.5251946,17.6933345 27.4117876,18.018 C25.3435851,24.9211158 18.372987,29.1266019 11.3018786,27.7373954 C4.23077022,26.3481889 -0.630700849,19.8181467 0.0664214573,12.6456653 C0.763543763,5.47318394 6.79150795,0.00152976247 13.9977876,0 L13.9977876,0.002 Z" id="路径"></path>
        </g>
    </g>
</svg>