<?xml version="1.0" encoding="UTF-8"?>
<svg width="20px" height="20px" viewBox="0 0 20 20" version="1.1" xmlns="http://www.w3.org/2000/svg" xmlns:xlink="http://www.w3.org/1999/xlink">
    <title>问题</title>
    <g id="Nuroum设备统一管理平台/DFU软件" stroke="none" stroke-width="1" fill="none" fill-rule="evenodd">
        <g id="icon" transform="translate(-256.000000, -47.000000)" fill="currentColor" fill-rule="nonzero">
            <g id="问题" transform="translate(256.000000, 47.000000)">
                <path d="M10,20 C8.65100671,20 7.34004474,19.7360179 6.10738255,19.2147651 C4.91722595,18.7114094 3.84787472,17.9910515 2.92841163,17.0715884 C2.01118568,16.1543624 1.2885906,15.0850112 0.785234899,13.8926174 C0.263982103,12.6599553 0,11.3489933 0,10 C0,8.65100671 0.263982103,7.34004474 0.785234899,6.10738255 C1.2885906,4.91722595 2.00894855,3.84787472 2.92841163,2.92841163 C3.84563758,2.01118568 4.91498881,1.2885906 6.10738255,0.785234899 C7.34004474,0.263982103 8.65100671,0 10,0 C11.3489933,0 12.6599553,0.263982103 13.8926174,0.785234899 C15.082774,1.2885906 16.1521253,2.00894855 17.0715884,2.92841163 C17.9888143,3.84563758 18.7114094,4.91498881 19.2147651,6.10738255 C19.7360179,7.34004474 20,8.65100671 20,10 C20,11.3489933 19.7360179,12.6599553 19.2147651,13.8926174 C18.7114094,15.082774 17.9910515,16.1521253 17.0715884,17.0715884 C16.1543624,17.9888143 15.0850112,18.7114094 13.8926174,19.2147651 C12.6599553,19.7337808 11.3489933,20 10,20 Z M10,1.43176734 C7.7114094,1.43176734 5.55928412,2.32214765 3.94183445,3.94183445 C2.32214765,5.55928412 1.43176734,7.7114094 1.43176734,10 C1.43176734,12.2885906 2.32214765,14.4384787 3.94183445,16.0581655 C5.55928412,17.6756152 7.7114094,18.5682327 10,18.5682327 C12.2885906,18.5682327 14.4407159,17.6756152 16.0581655,16.0581655 C17.6756152,14.4407159 18.5682327,12.2885906 18.5682327,10 C18.5682327,7.7114094 17.6778523,5.55928412 16.0581655,3.94183445 C14.4407159,2.32214765 12.2885906,1.43176734 10,1.43176734 Z" id="形状"></path>
                <path d="M6.34899329,7.93064877 C6.37136465,7.15659955 6.46085011,6.5704698 6.62192394,6.16778523 C6.78299776,5.76510067 7.04026846,5.4049217 7.39597315,5.08948546 C7.74944072,4.77181208 8.14541387,4.53914989 8.57941834,4.38926174 C9.01342282,4.2393736 9.47427293,4.16331096 9.95749441,4.16331096 C10.935123,4.16331096 11.7472036,4.44966443 12.3982103,5.0246085 C13.0469799,5.59955257 13.3736018,6.36465324 13.3736018,7.31991051 C13.3736018,7.74944072 13.2908277,8.13870246 13.1230425,8.48769575 C12.9574944,8.83668904 12.6017897,9.27069351 12.0604027,9.79194631 C11.5190157,10.3131991 11.1588367,10.6823266 10.9821029,10.9038031 C10.8053691,11.1230425 10.6711409,11.3870246 10.5794183,11.6935123 C10.4876957,12 10.4474273,12.409396 10.458613,12.9261745 L9.04026846,12.9261745 C9.04026846,12.3243848 9.08948546,11.8434004 9.18568233,11.4854586 C9.28187919,11.1252796 9.42729306,10.8120805 9.6196868,10.5436242 C9.81208054,10.2751678 10.1610738,9.88143177 10.6666667,9.36017897 C11.1722595,8.83892617 11.4966443,8.46085011 11.6420582,8.22371365 C11.787472,7.98657718 11.8590604,7.63534676 11.8590604,7.16778523 C11.8590604,6.70022371 11.6935123,6.28635347 11.360179,5.92841163 C11.0246085,5.56599553 10.541387,5.38478747 9.9082774,5.38478747 C8.48098434,5.38478747 7.76510067,6.23266219 7.76510067,7.93064877 L6.34899329,7.93064877 Z M10.5682327,15.8724832 L9.00671141,15.8724832 L9.00671141,14.2304251 L10.5682327,14.2304251 L10.5682327,15.8724832 Z" id="形状"></path>
            </g>
        </g>
    </g>
</svg>