<?xml version="1.0" encoding="UTF-8"?>
<svg width="20px" height="20px" viewBox="0 0 20 20" version="1.1" xmlns="http://www.w3.org/2000/svg" xmlns:xlink="http://www.w3.org/1999/xlink">
    <title>会议室管理_画板 1</title>
    <g id="Nuroum设备统一管理平台/DFU软件" stroke="none" stroke-width="1" fill="none" fill-rule="evenodd">
        <g id="icon" transform="translate(-66.000000, -47.000000)" fill="currentColor" fill-rule="nonzero">
            <g id="会议室管理_画板-1" transform="translate(66.000000, 47.000000)">
                <path d="M14.1818182,14.2 L5.72727273,14.2 L5.72727273,14 L5.72727273,13.7 C5.72727273,10.2 7.63636364,4.99999999 9.99999999,4.99999999 C12.3636363,4.99999999 14.2727273,10.3 14.2727273,13.7 L14.2727273,14 L14.1818182,14.2 L14.1818182,14.2 Z M9.99999999,4.8 C8.72727272,4.8 7.72727272,3.69999999 7.72727272,2.4 C7.72727272,1.10000001 8.72727272,0 9.99999999,0 C11.2727272,0 12.2727273,1.10000001 12.2727273,2.4 C12.2727273,3.69999999 11.2727273,4.8 9.99999999,4.8 L9.99999999,4.8 Z M20,14.2 L15,14.2 L15,13.9 L15,13.5 C15,11.7 13.8181818,7.6 13.0909091,6.4 L13,6.19999999 L13.0909091,6.00000001 C13.8181818,5.19999999 14.7272727,4.69999999 15.7272727,4.69999999 C18.0909091,4.69999999 20,10 20,13.4 L20,14.2 Z M15.8181818,4.8 C14.5454545,4.8 13.5454545,3.69999999 13.5454545,2.4 C13.5454545,1.10000001 14.5454545,0 15.8181818,0 C17.0909091,0 18.0909091,1.10000001 18.0909091,2.4 C18.0909091,3.69999999 17,4.8 15.8181818,4.8 Z M4.99999999,14.2 L0.0909090821,14.2 L0.0909090821,14 L0.0909090821,13.7 C0.0909090821,10.2 1.99999999,4.99999999 4.36363637,4.99999999 C5.27272727,4.99999999 6.18181819,5.39999998 6.99999999,6.30000001 L7.09090908,6.49999999 L6.99999999,6.7 C6.27272725,7.80000001 5.09090908,12 5.09090908,13.8 L5.09090908,14.2 L4.99999999,14.2 L4.99999999,14.2 Z M4.27272726,4.8 C2.99999999,4.8 1.99999999,3.69999999 1.99999999,2.4 C1.99999999,1.09999998 2.99999999,8.8817842e-16 4.27272726,8.8817842e-16 C5.54545451,8.8817842e-16 6.54545455,1.09999998 6.54545455,2.4 C6.54545455,3.69999999 5.45454546,4.8 4.27272726,4.8 Z M0,15 L20,15 L20,20 L0,20 L0,15 Z" id="形状"></path>
            </g>
        </g>
    </g>
</svg>