<?xml version="1.0" encoding="UTF-8"?>
<svg width="20px" height="20px" viewBox="0 0 20 20" version="1.1" xmlns="http://www.w3.org/2000/svg" xmlns:xlink="http://www.w3.org/1999/xlink">
    <title>icon_设置</title>
    <g id="Nuroum设备统一管理平台/DFU软件" stroke="none" stroke-width="1" fill="none" fill-rule="evenodd">
        <g id="icon" transform="translate(-542.000000, -47.000000)" fill="currentColor" fill-rule="nonzero">
            <g id="icon_设置" transform="translate(542.000000, 47.000000)">
                <path d="M9.37209062,1.37926278 L8.99968967,3.33367815 L8.55487742,3.43091618 C7.79182625,3.59797522 7.0640245,3.89768576 6.40460674,4.31640288 L6.001862,4.5715665 L4.42260612,3.3854005 L3.46057033,4.3474363 L4.57915244,5.99427606 L4.33364367,6.37702148 C3.91186654,7.03452791 3.6086638,7.76090738 3.43781249,8.52315437 L3.33436778,8.98865556 L1.37926278,9.26657701 L1.37926278,10.6265301 L3.33367815,10.9996207 L3.43091618,11.444433 C3.59809823,12.2074457 3.89780019,12.9352266 4.31640288,13.5947036 L4.5715665,13.9974484 L3.3854005,15.5767043 L4.3474363,16.53874 L5.99427606,15.4201579 L6.37702148,15.6656667 C7.03452791,16.0874438 7.76090738,16.3906466 8.52315437,16.5614979 L8.98865556,16.6649426 L9.26657701,18.6200476 L10.6265301,18.6200476 L10.9996207,16.6656322 L11.444433,16.5683942 C12.2074457,16.4012121 12.9352266,16.1015102 13.5947036,15.6829075 L13.9974484,15.4277439 L15.5767043,16.6139099 L16.53874,15.6518741 L15.4201579,14.0050343 L15.6656667,13.6222889 C16.0874438,12.9647825 16.3906466,12.238403 16.5614979,11.476156 L16.6649426,11.0106548 L18.6200476,10.7327334 L18.6200476,9.37209062 L16.6656322,8.99900003 L16.5683942,8.55418779 C16.4012121,7.79117509 16.1015102,7.06339417 15.6829075,6.40391711 L15.4277439,6.00117237 L16.6139099,4.42191649 L15.6518741,3.45988069 L14.0050343,4.57846281 L13.6222889,4.33295404 C12.9647559,3.91122757 12.2383856,3.60802867 11.476156,3.43712286 L11.0106548,3.33367815 L10.7327334,1.37857315 L9.37209062,1.37857315 L9.37209062,1.37926278 Z M7.81352367,2.19509672 L8.23212993,0 L11.9299335,0 L12.245095,2.21164787 C12.8485225,2.38543499 13.4271232,2.62818523 13.971932,2.9350712 L15.8208338,1.67856281 L18.435916,4.29364505 L17.0938933,6.07979035 C17.3973311,6.62735768 17.6359436,7.20802731 17.8042136,7.81283404 L20,8.2314403 L20,11.9292438 L17.7883521,12.2444054 C17.6151251,12.8461706 17.3723458,13.4256933 17.0649288,13.9712424 L18.3214372,15.8201441 L15.706355,18.4352264 L13.9202096,17.0932037 C13.3726423,17.3966415 12.7919727,17.635254 12.187166,17.803524 L11.7685597,19.9993104 L8.07075618,19.9993104 L7.75559463,17.7876625 C7.15382941,17.6144355 6.57430668,17.3716562 6.02875763,17.0642392 L4.17916624,18.3207476 L1.564084,15.7056653 L2.90610669,13.91952 C2.60275898,13.3714203 2.36437495,12.7898096 2.19578635,12.1864763 L0,11.7678701 L0,8.07006655 L2.21164787,7.754905 C2.38543499,7.15216717 2.62818523,6.5728768 2.9350712,6.028068 L1.67856281,4.17916624 L4.29364505,1.564084 L6.07979035,2.90610669 C6.62789278,2.60276465 7.20950284,2.3643809 7.81283404,2.19578635 L7.81352367,2.19509672 Z" id="形状"></path>
                <path d="M9.99965518,14.1374435 C7.71441778,14.1374435 5.86186683,12.2848926 5.86186683,9.99965518 C5.86186683,7.71441778 7.71441778,5.86186683 9.99965518,5.86186683 C12.2848926,5.86186683 14.1374435,7.71441778 14.1374435,9.99965518 C14.1374435,12.2848926 12.2848926,14.1374435 9.99965518,14.1374435 Z M9.99965518,12.7581808 C11.5231468,12.7581808 12.7581808,11.5231468 12.7581808,9.99965518 C12.7581808,8.47616358 11.5231468,7.24112962 9.99965518,7.24112962 C8.47616358,7.24112962 7.24112962,8.47616358 7.24112962,9.99965518 C7.24112962,11.5231468 8.47616358,12.7581808 9.99965518,12.7581808 Z" id="形状"></path>
            </g>
        </g>
    </g>
</svg>