<?xml version="1.0" encoding="UTF-8"?>
<svg width="20px" height="20px" viewBox="0 0 20 20" version="1.1" xmlns="http://www.w3.org/2000/svg" xmlns:xlink="http://www.w3.org/1999/xlink">
    <title>库存表 goods_wh_totalStock</title>
    <g id="Nuroum设备统一管理平台/DFU软件" stroke="none" stroke-width="1" fill="none" fill-rule="evenodd">
        <g id="icon" transform="translate(-352.000000, -47.000000)" fill="currentColor" fill-rule="nonzero">
            <g id="库存表-goods_wh_totalStock" transform="translate(352.000000, 47.000000)">
                <path d="M19.2714212,4.75115444 L17.5577219,1.45715752 C17.1369933,0.646485377 16.1108261,0 15.1667522,0 L4.69984608,0 C3.79681888,0 2.77065162,0.646485377 2.33966136,1.45715752 L0.636223705,4.65879938 C0.256541816,5.34633145 0,6.49563879 0,7.30631093 L0,18.1221139 C0,19.1482812 0.85171883,20 1.8778861,20 L18.1221139,20 C19.1482812,20 20,19.1482812 20,18.1221139 L20,7.39866598 C19.9589533,6.58799384 19.6613648,5.42842483 19.2714212,4.75115444 L19.2714212,4.75115444 Z M1.74448435,5.26423807 L3.45818368,2.05233453 C3.67367881,1.67265264 4.26885582,1.28270908 4.74089277,1.28270908 L15.2591072,1.28270908 C15.7311442,1.28270908 16.3263212,1.67265264 16.5418163,2.05233453 L18.2555156,5.34633145 C18.337609,5.52077989 18.4299641,5.68496665 18.4710108,5.90046177 L1.48794253,5.90046177 C1.52898923,5.64391996 1.62134428,5.42842483 1.74448435,5.26423807 Z M18.6762442,18.1323756 C18.6762442,18.4710108 18.3786557,18.7685993 18.0400205,18.7685993 L1.82657773,18.7685993 C1.48794253,18.7685993 1.19035403,18.4710108 1.19035403,18.1323756 L1.19035403,7.14212417 L18.6351975,7.14212417 L18.6351975,7.39866598 L18.6762442,18.1323756 L18.6762442,18.1323756 Z" id="形状"></path>
                <path d="M15.2077989,10.5592612 L12.0472037,13.9353515 L10.7644946,12.6526424 C10.5079528,12.3961006 10.1282709,12.3961006 9.86146742,12.6526424 C9.6049256,12.9091842 9.6049256,13.2888661 9.86146742,13.5454079 L11.5751668,15.2591072 C11.7085685,15.3822473 11.8727553,15.4335557 12.006157,15.4335557 C12.0882504,15.4335557 12.1806054,15.392509 12.2626988,15.392509 C12.3447922,15.3514623 12.4371473,15.3104156 12.5192406,15.2180605 L16.0697794,11.41098 C16.3263212,11.1544382 16.2852745,10.7747563 16.0287327,10.5079528 C15.8542842,10.3027193 15.423294,10.343766 15.2077989,10.5592612 L15.2077989,10.5592612 Z M8.07593638,10.5797845 L4.30990251,10.5797845 C3.97126732,10.5797845 3.67367881,10.877373 3.67367881,11.2160082 C3.67367881,11.5546434 3.97126732,11.8522319 4.30990251,11.8522319 L8.07593638,11.8522319 C8.41457158,11.8522319 8.71216008,11.5546434 8.71216008,11.2160082 C8.71216008,10.8363263 8.45561827,10.5797845 8.07593638,10.5797845 L8.07593638,10.5797845 Z M6.18778861,14.1508466 L4.30990251,14.1508466 C3.97126732,14.1508466 3.67367881,14.4484351 3.67367881,14.7870703 C3.67367881,15.1257055 3.97126732,15.423294 4.30990251,15.423294 L6.18778861,15.423294 C6.52642381,15.423294 6.82401231,15.1257055 6.82401231,14.7870703 C6.82401231,14.4484351 6.53668548,14.1508466 6.18778861,14.1508466 Z" id="形状"></path>
            </g>
        </g>
    </g>
</svg>