<?xml version="1.0" encoding="UTF-8"?>
<svg width="20px" height="22px" viewBox="0 0 20 22" version="1.1" xmlns="http://www.w3.org/2000/svg" xmlns:xlink="http://www.w3.org/1999/xlink">
    <title>想法</title>
    <g id="Nuroum设备统一管理平台/DFU软件" stroke="none" stroke-width="1" fill="none" fill-rule="evenodd">
        <g id="icon" transform="translate(-447.000000, -46.000000)" fill="currentColor" fill-rule="nonzero">
            <g id="想法" transform="translate(447.000000, 46.000000)">
                <path d="M0.0652787629,10.9575537 C0.0652787629,11.2765784 0.349634192,11.535199 0.700404389,11.535199 C1.05117459,11.535199 1.33553002,11.2765784 1.33553002,10.9575537 C1.33553002,10.6385289 1.05117459,10.3799083 0.700404389,10.3799083 C0.349634192,10.3799083 0.0652787629,10.6385289 0.0652787629,10.9575537 L0.0652787629,10.9575537 Z" id="路径"></path>
                <path d="M0.700432648,11.5944928 C0.314242357,11.5944928 -8.03174906e-16,11.3087672 -8.03174906e-16,10.9576051 C-8.03174906e-16,10.6063144 0.314242357,10.3205631 0.700432648,10.3205631 C1.08662294,10.3205631 1.40078052,10.6062887 1.40078052,10.9576051 C1.40078052,11.3087672 1.08662294,11.5944928 0.700432648,11.5944928 L0.700432648,11.5944928 Z M0.700432648,10.4391764 C0.386190292,10.4391764 0.130557526,10.6717509 0.130557526,10.9576051 C0.130557526,11.2433307 0.386190292,11.4759052 0.700432648,11.4759052 C1.01459023,11.4759052 1.27022299,11.2433307 1.27022299,10.9576051 C1.27022299,10.6717252 1.01459023,10.4391764 0.700432648,10.4391764 Z" id="形状"></path>
                <path d="M9.36854807,0.636964864 C9.36854807,0.843337688 9.48960231,1.03403405 9.68611087,1.13722046 C9.88261943,1.24040688 10.124728,1.24040688 10.3212365,1.13722046 C10.5177451,1.03403405 10.6387993,0.843337688 10.6387993,0.636964864 C10.6387993,0.317940133 10.3544439,0.0593194894 10.0036737,0.0593194894 C9.6529035,0.0593194894 9.36854807,0.317940133 9.36854807,0.636964864 L9.36854807,0.636964864 Z" id="路径"></path>
                <path d="M10.0036454,1.27392973 C9.61745515,1.27392973 9.30329757,0.988204094 9.30329757,0.637041969 C9.30329757,0.285751336 9.61745515,-7.30485828e-16 10.0036454,-7.30485828e-16 C10.3898357,-7.30485828e-16 10.7040781,0.285725634 10.7040781,0.637041969 C10.7040781,0.988204094 10.3898357,1.27392973 10.0036454,1.27392973 Z M10.0036454,0.118613277 C9.68948786,0.118613277 9.43385509,0.351187826 9.43385509,0.637041969 C9.43385509,0.922767603 9.68948786,1.15534215 10.0036454,1.15534215 C10.3178878,1.15534215 10.5735206,0.922767603 10.5735206,0.637041969 C10.5735206,0.351162125 10.3178878,0.118613277 10.0036454,0.118613277 Z" id="形状"></path>
                <path d="M0.536840112,6.16675954 C0.536840112,6.37313236 0.657894364,6.56382871 0.85440292,6.66701512 C1.05091148,6.77020153 1.29302,6.77020153 1.48952856,6.66701512 C1.68603711,6.56382871 1.80709136,6.37313236 1.80709136,6.16675954 C1.80709136,5.96038672 1.68603711,5.76969036 1.48952856,5.66650395 C1.29302,5.56331754 1.05091148,5.56331754 0.85440292,5.66650395 C0.657894364,5.76969036 0.536840112,5.96038672 0.536840112,6.16675954 L0.536840112,6.16675954 Z" id="路径"></path>
                <path d="M1.17196574,6.8037244 C0.785775447,6.8037244 0.47153309,6.51799877 0.47153309,6.16683664 C0.47153309,5.81554601 0.785775447,5.52979467 1.17196574,5.52979467 C1.55815603,5.52979467 1.87239839,5.81552031 1.87239839,6.16683664 C1.87239839,6.51799877 1.55815603,6.8037244 1.17196574,6.8037244 L1.17196574,6.8037244 Z M1.17196574,5.64838225 C0.857723382,5.64838225 0.602090616,5.8809568 0.602090616,6.16681094 C0.602090616,6.45253657 0.857723382,6.68511112 1.17196574,6.68511112 C1.4862081,6.68511112 1.74184086,6.45253657 1.74184086,6.16681094 C1.74184086,5.8809568 1.4862081,5.64838225 1.17196574,5.64838225 Z" id="形状"></path>
                <path d="M18.2566897,6.16675954 C18.2566897,6.48578427 18.5410451,6.74440491 18.8918153,6.74440491 C19.2425855,6.74440491 19.5269409,6.48578427 19.5269409,6.16675954 C19.5269409,5.8477348 19.2425855,5.58911416 18.8918153,5.58911416 C18.5410451,5.58911416 18.2566897,5.8477348 18.2566897,6.16675954 L18.2566897,6.16675954 Z" id="路径"></path>
                <path d="M18.8918435,6.8037244 C18.5056533,6.8037244 18.1914109,6.51799877 18.1914109,6.16683664 C18.1914109,5.81554601 18.5056533,5.52979467 18.8918435,5.52979467 C19.2780338,5.52979467 19.5921914,5.81552031 19.5921914,6.16683664 C19.5921914,6.51799877 19.2780338,6.8037244 18.8918435,6.8037244 L18.8918435,6.8037244 Z M18.8918435,5.64838225 C18.5776012,5.64838225 18.3219684,5.8809568 18.3219684,6.16681094 C18.3219684,6.45253657 18.5776012,6.68511112 18.8918435,6.68511112 C19.2060011,6.68511112 19.4616339,6.45253657 19.4616339,6.16681094 C19.4616339,5.8809568 19.2060011,5.64838225 18.8918435,5.64838225 Z" id="形状"></path>
                <path d="M3.91426722,2.19230234 C3.91426722,2.51132707 4.19862265,2.76994772 4.54939285,2.76994772 C4.90016305,2.76994772 5.18451848,2.51132707 5.18451848,2.19230234 C5.18451848,1.87327761 4.90016305,1.61465697 4.54939285,1.61465697 C4.19862265,1.61465697 3.91426722,1.87327761 3.91426722,2.19230234 Z" id="路径"></path>
                <path d="M4.54939285,2.8292415 C4.16320256,2.8292415 3.8489602,2.54351587 3.8489602,2.19235375 C3.8489602,1.84106311 4.16320256,1.55531178 4.54939285,1.55531178 C4.93558314,1.55531178 5.24974072,1.84103741 5.24974072,2.19235375 C5.24974072,2.54351587 4.93558314,2.8292415 4.54939285,2.8292415 Z M4.54939285,1.67389935 C4.23515049,1.67389935 3.97951773,1.9064739 3.97951773,2.19232804 C3.97951773,2.47805368 4.23515049,2.71062823 4.54939285,2.71062823 C4.86355043,2.71062823 5.1191832,2.47805368 5.1191832,2.19232804 C5.1191832,1.9064739 4.86355043,1.67389935 4.54939285,1.67389935 Z" id="形状"></path>
                <path d="M14.862957,2.19230234 C14.862957,2.51132707 15.1473124,2.76994772 15.4980826,2.76994772 C15.8488528,2.76994772 16.1332082,2.51132707 16.1332082,2.19230234 C16.1332082,1.87327761 15.8488528,1.61465697 15.4980826,1.61465697 C15.1473124,1.61465697 14.862957,1.87327761 14.862957,2.19230234 Z" id="路径"></path>
                <path d="M15.4980826,2.8292415 C15.1118923,2.8292415 14.79765,2.54351587 14.79765,2.19235375 C14.79765,1.84106311 15.1118923,1.55531178 15.4980826,1.55531178 C15.8842729,1.55531178 16.1985153,1.84103741 16.1985153,2.19235375 C16.1985153,2.54351587 15.8842729,2.8292415 15.4980826,2.8292415 Z M15.4980826,1.67389935 C15.1838403,1.67389935 14.9282075,1.9064739 14.9282075,2.19232804 C14.9282075,2.47805368 15.1838403,2.71062823 15.4980826,2.71062823 C15.812325,2.71062823 16.0679577,2.47805368 16.0679577,2.19232804 C16.0679577,1.9064739 15.812325,1.67389935 15.4980826,1.67389935 Z" id="形状"></path>
                <path d="M18.5877462,10.9575537 C18.5877462,11.2765784 18.8721017,11.535199 19.2228719,11.535199 C19.5736421,11.535199 19.8579975,11.2765784 19.8579975,10.9575537 C19.8579975,10.6385289 19.5736421,10.3799083 19.2228719,10.3799083 C18.8721017,10.3799083 18.5877462,10.6385289 18.5877462,10.9575537 L18.5877462,10.9575537 Z" id="路径"></path>
                <path d="M19.2228719,11.5944928 C18.8366816,11.5944928 18.5224392,11.3087672 18.5224392,10.9576051 C18.5224392,10.6063144 18.8366816,10.3205631 19.2228719,10.3205631 C19.6090622,10.3205631 19.9233045,10.6062887 19.9233045,10.9576051 C19.9232763,11.3087672 19.6090622,11.5944928 19.2228719,11.5944928 Z M19.2228719,10.4391764 C18.9086295,10.4391764 18.6529967,10.6717509 18.6529967,10.9576051 C18.6529967,11.2433307 18.9086295,11.4759052 19.2228719,11.4759052 C19.5371142,11.4759052 19.792747,11.2433307 19.792747,10.9576051 C19.792747,10.6717252 19.5371142,10.4391764 19.2228719,10.4391764 Z M10.3057646,9.95945441 L7.12790399,9.95945441 C5.96537682,9.95945441 5.01959776,9.09939892 5.01959776,8.04208299 C5.01959776,6.98476707 5.96537682,6.12471158 7.12790399,6.12471158 C8.29034637,6.12471158 9.2361537,6.98476707 9.2361537,8.04208299 C9.2361537,8.31526621 8.99267239,8.53666052 8.69227704,8.53666052 C8.3918817,8.53666052 8.14840039,8.31526621 8.14840039,8.04208299 C8.14840039,7.53033674 7.69062953,7.11386663 7.12790399,7.11386663 C6.56517844,7.11386663 6.10732281,7.53033674 6.10732281,8.04208299 C6.10732281,8.55382925 6.56515018,8.97029936 7.12790399,8.97029936 L10.3057363,8.97029936 C10.6061034,8.97029936 10.849613,9.19169367 10.849613,9.46487688 C10.849613,9.7380601 10.6061317,9.95945441 10.3057646,9.95945441 Z" id="形状"></path>
                <path d="M13.8410759,20.1999825 C13.7926951,20.1999825 13.7445298,20.1941235 13.6978582,20.182531 L6.33057053,18.3573258 C6.09387237,18.2986883 5.9296349,18.1031908 5.92962893,17.8800712 L5.92962893,15.6251596 C3.61633043,14.3362201 2.19254692,12.0390549 2.19254692,9.56030724 C2.19254692,5.64077455 5.69872297,2.45191506 10.0083647,2.45191506 C14.3180065,2.45191506 17.8241825,5.64077455 17.8241825,9.56030724 C17.8241825,12.0246105 16.4127766,14.3149648 14.1194856,15.6070142 L14.1194856,17.6439499 C14.1194856,17.9171331 13.8760043,18.1385274 13.5756089,18.1385274 C13.2752136,18.1385274 13.0317323,17.9171331 13.0317323,17.6439499 L13.0317323,15.3249639 C13.0317323,15.1465171 13.1374782,14.9818464 13.3084181,14.894178 C15.4228849,13.809464 16.7364292,11.7657174 16.7364292,9.56028154 C16.7364292,6.18616431 13.7182049,3.44104442 10.0083365,3.44104442 C6.29846807,3.44104442 3.28030023,6.18619001 3.28030023,9.56030724 C3.28030023,11.7786711 4.60531782,13.8283034 6.73820955,14.9094705 C6.91056055,14.9967281 7.01740607,15.1620616 7.01738224,15.3414644 L7.01738224,17.5021794 L13.9837001,19.2280218 C14.2734982,19.299858 14.4444664,19.5716791 14.3655385,19.8353269 C14.2995815,20.0553591 14.0802901,20.1999825 13.8410759,20.1999825 L13.8410759,20.1999825 Z" id="路径"></path>
                <path d="M8.70479587,15.1142101 C8.40442878,15.1142101 8.16091922,14.8928158 8.16091922,14.6196326 L8.16091922,8.20798737 C8.16091922,7.93480416 8.40440052,7.71340984 8.70479587,7.71340984 C9.00519122,7.71340984 9.24867252,7.93480416 9.24867252,8.20798737 L9.24867252,14.6196326 C9.24867252,14.8928158 9.00516296,15.1142101 8.70479587,15.1142101 Z" id="路径"></path>
                <path d="M12.8888537,9.95945441 L9.71099311,9.95945441 C9.41062603,9.95945441 9.16711646,9.7380601 9.16711646,9.46487688 C9.16711646,9.19169367 9.41059777,8.97029936 9.71099311,8.97029936 L12.8888255,8.97029936 C13.4515793,8.97029936 13.9094066,8.55382925 13.9094066,8.04208299 C13.9094066,7.53033674 13.4515793,7.11386663 12.8888255,7.11386663 C12.3260717,7.11386663 11.8683291,7.53033674 11.8683291,8.04208299 C11.8683291,8.31526621 11.6248478,8.53666052 11.3244524,8.53666052 C11.0240571,8.53666052 10.7805758,8.31526621 10.7805758,8.04208299 C10.7805758,6.98476707 11.7263548,6.12471158 12.8888255,6.12471158 C14.0513526,6.12471158 14.9971317,6.98476707 14.9971317,8.04208299 C14.9971317,9.09939892 14.0513809,9.95945441 12.8888537,9.95945441 L12.8888537,9.95945441 Z" id="路径"></path>
                <path d="M11.3119336,15.1142101 C11.0115665,15.1142101 10.7680569,14.8928158 10.7680569,14.6196326 L10.7680569,8.20798737 C10.7680569,7.93480416 11.0115382,7.71340984 11.3119336,7.71340984 C11.6123289,7.71340984 11.8558102,7.93480416 11.8558102,8.20798737 L11.8558102,14.6196326 C11.8558102,14.8928158 11.6123289,15.1142101 11.3119336,15.1142101 Z M13.8227074,22 C13.7749977,22 13.7274958,21.9942845 13.6814396,21.9829598 L6.30471335,20.1829679 C6.01460436,20.1122112 5.84253406,19.8409299 5.92033165,19.5771535 C5.99818576,19.3132229 6.29713989,19.1565968 6.58651414,19.2276106 L13.9632404,21.0276024 C14.2533494,21.0983592 14.4254197,21.3696404 14.3476221,21.6334168 C14.2824281,21.8543999 14.0627693,22 13.8227074,22 L13.8227074,22 Z" id="形状"></path>
            </g>
        </g>
    </g>
</svg>