<svg t="1674109318998" class="icon" viewBox="0 0 1024 1024" version="1.1"
    xmlns="http://www.w3.org/2000/svg" p-id="2596" width="200" height="200">
    <path
        d="M653.888 704H992a32 32 0 0 1 0 64H576a32 32 0 0 1-18.56-58.08l64.448-64.416a32 32 0 0 1 45.248 45.248l-13.248 13.248z m360.704 182.656a32.64 32.64 0 0 1-0.224 0.256l-67.904 67.84a32 32 0 0 1-45.248-45.216l13.536-13.536H576a32 32 0 0 1 0-64h416a32 32 0 0 1 22.592 54.656z m-468.544-316.608A318.656 318.656 0 0 0 464 784c0 56.992 14.88 111.744 42.784 160l27.776 48H96a96 96 0 0 1-96-96v-195.936l9.76-9.408c81.984-79.36 182.144-134.752 291.104-161.152A255.68 255.68 0 0 1 192 320V288a256 256 0 1 1 512 0v32a255.328 255.328 0 0 1-79.904 185.824l-5.44 4.16c-15.296 9.248-29.76 19.744-43.328 31.392l-5.664 3.904-2.592 1.408-21.024 23.36zM640 320V288A192 192 0 1 0 256 288v32a192 192 0 0 0 280.352 170.528c14.496-12.256 29.888-23.424 46.048-33.408A191.296 191.296 0 0 0 640 320z m-192 256c-143.776 0-279.2 54.56-384 151.424V896a32 32 0 0 0 32 32h331.904a383.104 383.104 0 0 1-27.904-144c0-75.008 21.6-146.72 61.056-207.84A569.344 569.344 0 0 0 448 576z"
        fill="CurrentCOlor" p-id="2597"></path>
</svg>